TITLE ""
FILE "2Q_t_1236-1251.mp3" MP3
  TRACK 01 AUDIO
    TITLE "2Q_t_1236-1251_01"
    INDEX 01 00:00:00
  TRACK 02 AUDIO
    TITLE "2Q_t_1236-1251_02"
    INDEX 01 00:00:26
  TRACK 03 AUDIO
    TITLE "2Q_t_1236-1251_03"
    INDEX 01 00:01:49
  TRACK 04 AUDIO
    TITLE "2Q_t_1236-1251_04"
    INDEX 01 00:02:35
  TRACK 05 AUDIO
    TITLE "2Q_t_1236-1251_05"
    INDEX 01 00:06:31
  TRACK 06 AUDIO
    TITLE "2Q_t_1236-1251_06"
    INDEX 01 00:06:74
  TRACK 07 AUDIO
    TITLE "2Q_t_1236-1251_07"
    INDEX 01 00:08:25
  TRACK 08 AUDIO
    TITLE "2Q_t_1236-1251_08"
    INDEX 01 00:08:73
  TRACK 09 AUDIO
    TITLE "2Q_t_1236-1251_09"
    INDEX 01 00:12:06
  TRACK 10 AUDIO
    TITLE "2Q_t_1236-1251_10"
    INDEX 01 00:12:51
  TRACK 11 AUDIO
    TITLE "2Q_t_1236-1251_11"
    INDEX 01 00:13:54
  TRACK 12 AUDIO
    TITLE "2Q_t_1236-1251_12"
    INDEX 01 00:14:40
  TRACK 13 AUDIO
    TITLE "2Q_t_1236-1251_13"
    INDEX 01 00:18:24
  TRACK 14 AUDIO
    TITLE "2Q_t_1236-1251_14"
    INDEX 01 00:18:69
  TRACK 15 AUDIO
    TITLE "2Q_t_1236-1251_15"
    INDEX 01 00:20:01
  TRACK 16 AUDIO
    TITLE "2Q_t_1236-1251_16"
    INDEX 01 00:20:52
  TRACK 17 AUDIO
    TITLE "2Q_t_1236-1251_17"
    INDEX 01 00:24:15
  TRACK 18 AUDIO
    TITLE "2Q_t_1236-1251_18"
    INDEX 01 00:24:60
  TRACK 19 AUDIO
    TITLE "2Q_t_1236-1251_19"
    INDEX 01 00:25:75
  TRACK 20 AUDIO
    TITLE "2Q_t_1236-1251_20"
    INDEX 01 00:26:51
  TRACK 21 AUDIO
    TITLE "2Q_t_1236-1251_21"
    INDEX 01 00:29:14
  TRACK 22 AUDIO
    TITLE "2Q_t_1236-1251_22"
    INDEX 01 00:29:61
  TRACK 23 AUDIO
    TITLE "2Q_t_1236-1251_23"
    INDEX 01 00:30:68
  TRACK 24 AUDIO
    TITLE "2Q_t_1236-1251_24"
    INDEX 01 00:31:46
  TRACK 25 AUDIO
    TITLE "2Q_t_1236-1251_25"
    INDEX 01 00:32:73
  TRACK 26 AUDIO
    TITLE "2Q_t_1236-1251_26"
    INDEX 01 00:33:45
  TRACK 27 AUDIO
    TITLE "2Q_t_1236-1251_27"
    INDEX 01 00:34:64
  TRACK 28 AUDIO
    TITLE "2Q_t_1236-1251_28"
    INDEX 01 00:35:40
  TRACK 29 AUDIO
    TITLE "2Q_t_1236-1251_29"
    INDEX 01 00:38:07
  TRACK 30 AUDIO
    TITLE "2Q_t_1236-1251_30"
    INDEX 01 00:38:52
  TRACK 31 AUDIO
    TITLE "2Q_t_1236-1251_31"
    INDEX 01 00:39:59
  TRACK 32 AUDIO
    TITLE "2Q_t_1236-1251_32"
    INDEX 01 00:40:31
  TRACK 33 AUDIO
    TITLE "2Q_t_1236-1251_33"
    INDEX 01 00:42:67
  TRACK 34 AUDIO
    TITLE "2Q_t_1236-1251_34"
    INDEX 01 00:43:40
  TRACK 35 AUDIO
    TITLE "2Q_t_1236-1251_35"
    INDEX 01 00:44:43
  TRACK 36 AUDIO
    TITLE "2Q_t_1236-1251_36"
    INDEX 01 00:45:15
  TRACK 37 AUDIO
    TITLE "2Q_t_1236-1251_37"
    INDEX 01 00:46:16
  TRACK 38 AUDIO
    TITLE "2Q_t_1236-1251_38"
    INDEX 01 00:46:59
  TRACK 39 AUDIO
    TITLE "2Q_t_1236-1251_39"
    INDEX 01 00:47:71
  TRACK 40 AUDIO
    TITLE "2Q_t_1236-1251_40"
    INDEX 01 00:48:39
  TRACK 41 AUDIO
    TITLE "2Q_t_1236-1251_41"
    INDEX 01 00:49:52
  TRACK 42 AUDIO
    TITLE "2Q_t_1236-1251_42"
    INDEX 01 00:50:30
  TRACK 43 AUDIO
    TITLE "2Q_t_1236-1251_43"
    INDEX 01 00:51:37
  TRACK 44 AUDIO
    TITLE "2Q_t_1236-1251_44"
    INDEX 01 00:52:07
  TRACK 45 AUDIO
    TITLE "2Q_t_1236-1251_45"
    INDEX 01 00:53:40
  TRACK 46 AUDIO
    TITLE "2Q_t_1236-1251_46"
    INDEX 01 00:54:14
  TRACK 47 AUDIO
    TITLE "2Q_t_1236-1251_47"
    INDEX 01 00:55:35
  TRACK 48 AUDIO
    TITLE "2Q_t_1236-1251_48"
    INDEX 01 00:56:05
  TRACK 49 AUDIO
    TITLE "2Q_t_1236-1251_49"
    INDEX 01 00:57:20
  TRACK 50 AUDIO
    TITLE "2Q_t_1236-1251_50"
    INDEX 01 00:57:73
  TRACK 51 AUDIO
    TITLE "2Q_t_1236-1251_51"
    INDEX 01 01:00:07
  TRACK 52 AUDIO
    TITLE "2Q_t_1236-1251_52"
    INDEX 01 01:00:52
  TRACK 53 AUDIO
    TITLE "2Q_t_1236-1251_53"
    INDEX 01 01:01:59
  TRACK 54 AUDIO
    TITLE "2Q_t_1236-1251_54"
    INDEX 01 01:02:33
  TRACK 55 AUDIO
    TITLE "2Q_t_1236-1251_55"
    INDEX 01 01:03:46
  TRACK 56 AUDIO
    TITLE "2Q_t_1236-1251_56"
    INDEX 01 01:04:16
  TRACK 57 AUDIO
    TITLE "2Q_t_1236-1251_57"
    INDEX 01 01:05:67
  TRACK 58 AUDIO
    TITLE "2Q_t_1236-1251_58"
    INDEX 01 01:06:46
  TRACK 59 AUDIO
    TITLE "2Q_t_1236-1251_59"
    INDEX 01 01:07:69
  TRACK 60 AUDIO
    TITLE "2Q_t_1236-1251_60"
    INDEX 01 01:08:39
  TRACK 61 AUDIO
    TITLE "2Q_t_1236-1251_61"
    INDEX 01 01:09:58
  TRACK 62 AUDIO
    TITLE "2Q_t_1236-1251_62"
    INDEX 01 01:10:31
  TRACK 63 AUDIO
    TITLE "2Q_t_1236-1251_63"
    INDEX 01 01:11:52
  TRACK 64 AUDIO
    TITLE "2Q_t_1236-1251_64"
    INDEX 01 01:12:20
  TRACK 65 AUDIO
    TITLE "2Q_t_1236-1251_65"
    INDEX 01 01:13:35
  TRACK 66 AUDIO
    TITLE "2Q_t_1236-1251_66"
    INDEX 01 01:14:09
  TRACK 67 AUDIO
    TITLE "2Q_t_1236-1251_67"
    INDEX 01 01:16:08
